<mxfile host="app.diagrams.net" modified="2023-06-15T16:30:08.016Z" agent="Mozilla/5.0 (Windows NT 10.0; Win64; x64; rv:109.0) Gecko/20100101 Firefox/114.0" etag="vSSIqet_U1OpEfyehlc8" version="21.4.0" type="github">
  <diagram name="Strona-1" id="7y1bbHH6pKz6bEYP6Cvj">
    <mxGraphModel dx="596" dy="413" grid="1" gridSize="10" guides="1" tooltips="1" connect="1" arrows="1" fold="1" page="1" pageScale="1" pageWidth="827" pageHeight="1169" math="0" shadow="0">
      <root>
        <mxCell id="0" />
        <mxCell id="1" parent="0" />
        <mxCell id="n95og1urTgADcSXksq1J-11" value="" style="endArrow=none;html=1;rounded=0;entryX=0.5;entryY=1;entryDx=0;entryDy=0;entryPerimeter=0;fillColor=#008a00;strokeColor=#005700;" parent="1" edge="1">
          <mxGeometry width="50" height="50" relative="1" as="geometry">
            <mxPoint x="280" y="80" as="sourcePoint" />
            <mxPoint x="280" y="357.52" as="targetPoint" />
          </mxGeometry>
        </mxCell>
        <mxCell id="n95og1urTgADcSXksq1J-1" value="&lt;div&gt;m&lt;/div&gt;" style="ellipse;whiteSpace=wrap;html=1;aspect=fixed;strokeWidth=4;fillColor=#0050ef;fontColor=#ffffff;strokeColor=#001DBC;" parent="1" vertex="1">
          <mxGeometry x="429" y="268" width="80" height="80" as="geometry" />
        </mxCell>
        <mxCell id="n95og1urTgADcSXksq1J-2" value="" style="endArrow=none;html=1;rounded=0;exitX=0;exitY=0;exitDx=0;exitDy=0;fillColor=#0050ef;strokeColor=#001DBC;strokeWidth=4;" parent="1" source="n95og1urTgADcSXksq1J-1" edge="1">
          <mxGeometry width="50" height="50" relative="1" as="geometry">
            <mxPoint x="335" y="260" as="sourcePoint" />
            <mxPoint x="280" y="80" as="targetPoint" />
          </mxGeometry>
        </mxCell>
        <mxCell id="n95og1urTgADcSXksq1J-3" value="&lt;div align=&quot;left&quot;&gt;L cos(α)&lt;/div&gt;" style="endArrow=none;html=1;rounded=0;align=left;fillColor=#0050ef;strokeColor=#001DBC;" parent="1" edge="1">
          <mxGeometry width="50" height="50" relative="1" as="geometry">
            <mxPoint x="280" y="80" as="sourcePoint" />
            <mxPoint x="280" y="280" as="targetPoint" />
          </mxGeometry>
        </mxCell>
        <mxCell id="n95og1urTgADcSXksq1J-4" value="" style="endArrow=none;html=1;rounded=0;fillColor=#0050ef;strokeColor=#001DBC;" parent="1" source="n95og1urTgADcSXksq1J-7" edge="1">
          <mxGeometry width="50" height="50" relative="1" as="geometry">
            <mxPoint x="440" y="80" as="sourcePoint" />
            <mxPoint x="280" y="80" as="targetPoint" />
          </mxGeometry>
        </mxCell>
        <mxCell id="n95og1urTgADcSXksq1J-5" value="" style="endArrow=none;dashed=1;html=1;dashPattern=1 3;strokeWidth=2;rounded=0;entryX=0;entryY=0;entryDx=0;entryDy=0;" parent="1" target="n95og1urTgADcSXksq1J-1" edge="1">
          <mxGeometry width="50" height="50" relative="1" as="geometry">
            <mxPoint x="280" y="280" as="sourcePoint" />
            <mxPoint x="400" y="280" as="targetPoint" />
          </mxGeometry>
        </mxCell>
        <mxCell id="n95og1urTgADcSXksq1J-6" value="" style="endArrow=none;dashed=1;html=1;dashPattern=1 3;strokeWidth=2;rounded=0;exitX=0;exitY=0;exitDx=0;exitDy=0;" parent="1" source="n95og1urTgADcSXksq1J-1" edge="1">
          <mxGeometry width="50" height="50" relative="1" as="geometry">
            <mxPoint x="350" y="330" as="sourcePoint" />
            <mxPoint x="440" y="80" as="targetPoint" />
          </mxGeometry>
        </mxCell>
        <mxCell id="n95og1urTgADcSXksq1J-8" value="L sin(α)" style="endArrow=none;html=1;rounded=0;fillColor=#0050ef;strokeColor=#001DBC;" parent="1" target="n95og1urTgADcSXksq1J-7" edge="1">
          <mxGeometry width="50" height="50" relative="1" as="geometry">
            <mxPoint x="440" y="80" as="sourcePoint" />
            <mxPoint x="280" y="80" as="targetPoint" />
          </mxGeometry>
        </mxCell>
        <mxCell id="n95og1urTgADcSXksq1J-7" value="" style="verticalLabelPosition=bottom;verticalAlign=top;html=1;shape=mxgraph.basic.arc;startAngle=0.3947917120802828;endAngle=0.4984085036175459;labelBorderColor=default;labelPosition=right;align=left;" parent="1" vertex="1">
          <mxGeometry x="230" y="30" width="100" height="100" as="geometry" />
        </mxCell>
        <mxCell id="n95og1urTgADcSXksq1J-9" value="" style="verticalLabelPosition=bottom;verticalAlign=top;html=1;shape=mxgraph.basic.arc;startAngle=0.33415680048955126;endAngle=0.4984085036175459;labelBorderColor=default;labelPosition=right;align=left;aspect=fixed;fillColor=#008a00;fontColor=#ffffff;strokeColor=#005700;" parent="1" vertex="1">
          <mxGeometry x="91" y="31" width="376" height="326.52" as="geometry" />
        </mxCell>
        <mxCell id="n95og1urTgADcSXksq1J-10" value="α" style="text;html=1;strokeColor=none;fillColor=none;align=center;verticalAlign=middle;whiteSpace=wrap;rounded=0;" parent="1" vertex="1">
          <mxGeometry x="260" y="90" width="60" height="30" as="geometry" />
        </mxCell>
        <mxCell id="n95og1urTgADcSXksq1J-12" value="L" style="text;html=1;strokeColor=none;fillColor=none;align=center;verticalAlign=middle;whiteSpace=wrap;rounded=0;fontColor=#3333FF;fontStyle=1" parent="1" vertex="1">
          <mxGeometry x="354" y="160" width="60" height="30" as="geometry" />
        </mxCell>
        <mxCell id="n95og1urTgADcSXksq1J-13" value="&lt;div&gt;Fg=m*g&lt;/div&gt;" style="endArrow=block;html=1;rounded=0;fillColor=#1ba1e2;strokeColor=#006EAF;exitX=0.513;exitY=0.525;exitDx=0;exitDy=0;exitPerimeter=0;" parent="1" source="n95og1urTgADcSXksq1J-1" edge="1">
          <mxGeometry x="0.0771" y="-40" width="50" height="50" relative="1" as="geometry">
            <mxPoint x="467" y="348" as="sourcePoint" />
            <mxPoint x="470" y="440" as="targetPoint" />
            <mxPoint as="offset" />
          </mxGeometry>
        </mxCell>
        <mxCell id="n95og1urTgADcSXksq1J-14" value="m*g cos(α)" style="endArrow=blockThin;html=1;rounded=0;fillColor=#1ba1e2;strokeColor=#006EAF;strokeWidth=1;startArrow=none;startFill=0;endFill=1;" parent="1" edge="1">
          <mxGeometry x="0.7046" y="27" width="50" height="50" relative="1" as="geometry">
            <mxPoint x="469" y="310" as="sourcePoint" />
            <mxPoint x="540" y="390" as="targetPoint" />
            <mxPoint as="offset" />
          </mxGeometry>
        </mxCell>
        <mxCell id="n95og1urTgADcSXksq1J-16" value="m*g sin(α)" style="endArrow=none;html=1;rounded=0;fillColor=#1ba1e2;strokeColor=#006EAF;startArrow=blockThin;startFill=1;" parent="1" edge="1">
          <mxGeometry x="0.2703" y="-27" width="50" height="50" relative="1" as="geometry">
            <mxPoint x="470" y="440" as="sourcePoint" />
            <mxPoint x="540" y="390" as="targetPoint" />
            <mxPoint as="offset" />
          </mxGeometry>
        </mxCell>
        <mxCell id="n95og1urTgADcSXksq1J-17" value="" style="verticalLabelPosition=bottom;verticalAlign=top;html=1;shape=mxgraph.basic.arc;startAngle=0.3947917120802828;endAngle=0.4984085036175459;" parent="1" vertex="1">
          <mxGeometry x="419" y="257.52" width="100" height="100" as="geometry" />
        </mxCell>
        <mxCell id="n95og1urTgADcSXksq1J-18" value="α" style="text;html=1;strokeColor=none;fillColor=none;align=center;verticalAlign=middle;whiteSpace=wrap;rounded=0;" parent="1" vertex="1">
          <mxGeometry x="449" y="327.52" width="60" height="30" as="geometry" />
        </mxCell>
        <mxCell id="DCshJSXJCcwkppHhtiSB-1" value="" style="verticalLabelPosition=bottom;verticalAlign=top;html=1;shape=mxgraph.basic.arc;startAngle=0.6395938965312841;endAngle=0.8675682592888079;" vertex="1" parent="1">
          <mxGeometry x="509" y="357.52" width="60" height="60" as="geometry" />
        </mxCell>
        <mxCell id="DCshJSXJCcwkppHhtiSB-5" value="." style="text;html=1;strokeColor=none;fillColor=none;align=center;verticalAlign=middle;whiteSpace=wrap;rounded=0;" vertex="1" parent="1">
          <mxGeometry x="520" y="382.52" height="10" as="geometry" />
        </mxCell>
        <mxCell id="DCshJSXJCcwkppHhtiSB-7" value="x" style="text;html=1;strokeColor=none;fillColor=none;align=center;verticalAlign=middle;whiteSpace=wrap;rounded=0;fontColor=#33FF33;" vertex="1" parent="1">
          <mxGeometry x="320" y="310" width="60" height="30" as="geometry" />
        </mxCell>
      </root>
    </mxGraphModel>
  </diagram>
</mxfile>
